<mxfile host="app.diagrams.net" agent="Mozilla/5.0 (Windows NT 10.0; Win64; x64) AppleWebKit/537.36 (KHTML, like Gecko) Chrome/135.0.0.0 Safari/537.36 OPR/120.0.0.0" version="28.1.0">
  <diagram name="Page-1" id="nuph0uPE4SauF5uHy0lM">
    <mxGraphModel dx="1224" dy="661" grid="1" gridSize="10" guides="1" tooltips="1" connect="1" arrows="1" fold="1" page="1" pageScale="1" pageWidth="850" pageHeight="1100" math="0" shadow="0">
      <root>
        <mxCell id="0" />
        <mxCell id="1" parent="0" />
        <mxCell id="OyOArgG9CKw7AW4kFrOo-15" style="edgeStyle=orthogonalEdgeStyle;rounded=0;orthogonalLoop=1;jettySize=auto;html=1;entryX=0.5;entryY=0;entryDx=0;entryDy=0;" edge="1" parent="1" source="OyOArgG9CKw7AW4kFrOo-1" target="OyOArgG9CKw7AW4kFrOo-6">
          <mxGeometry relative="1" as="geometry" />
        </mxCell>
        <mxCell id="OyOArgG9CKw7AW4kFrOo-31" style="rounded=0;orthogonalLoop=1;jettySize=auto;html=1;entryX=0;entryY=0.5;entryDx=0;entryDy=0;exitX=1;exitY=0.5;exitDx=0;exitDy=0;endArrow=none;endFill=0;dashed=1;" edge="1" parent="1" source="OyOArgG9CKw7AW4kFrOo-1" target="OyOArgG9CKw7AW4kFrOo-22">
          <mxGeometry relative="1" as="geometry" />
        </mxCell>
        <mxCell id="OyOArgG9CKw7AW4kFrOo-1" value="&lt;font style=&quot;font-size: 15px;&quot;&gt;Conv + ReLU&lt;br&gt;8 x 3&lt;/font&gt;&lt;div&gt;&lt;font style=&quot;font-size: 15px;&quot;&gt;Stride = 1&lt;/font&gt;&lt;/div&gt;" style="rounded=0;whiteSpace=wrap;html=1;fillColor=#e1d5e7;strokeColor=#9673a6;" vertex="1" parent="1">
          <mxGeometry x="80" y="100" width="110" height="60" as="geometry" />
        </mxCell>
        <mxCell id="OyOArgG9CKw7AW4kFrOo-16" style="edgeStyle=orthogonalEdgeStyle;rounded=0;orthogonalLoop=1;jettySize=auto;html=1;entryX=0.5;entryY=0;entryDx=0;entryDy=0;" edge="1" parent="1" source="OyOArgG9CKw7AW4kFrOo-6" target="OyOArgG9CKw7AW4kFrOo-7">
          <mxGeometry relative="1" as="geometry" />
        </mxCell>
        <mxCell id="OyOArgG9CKw7AW4kFrOo-32" style="rounded=0;orthogonalLoop=1;jettySize=auto;html=1;entryX=0;entryY=0.5;entryDx=0;entryDy=0;exitX=1;exitY=0.5;exitDx=0;exitDy=0;endArrow=none;endFill=0;dashed=1;" edge="1" parent="1" source="OyOArgG9CKw7AW4kFrOo-6" target="OyOArgG9CKw7AW4kFrOo-22">
          <mxGeometry relative="1" as="geometry" />
        </mxCell>
        <mxCell id="OyOArgG9CKw7AW4kFrOo-6" value="&lt;font style=&quot;font-size: 15px;&quot;&gt;Conv + ReLU&lt;br&gt;16 x 3&lt;/font&gt;&lt;div&gt;&lt;font style=&quot;font-size: 15px;&quot;&gt;Stride = 1&lt;/font&gt;&lt;/div&gt;" style="rounded=0;whiteSpace=wrap;html=1;fillColor=#e1d5e7;strokeColor=#9673a6;" vertex="1" parent="1">
          <mxGeometry x="80" y="180" width="110" height="60" as="geometry" />
        </mxCell>
        <mxCell id="OyOArgG9CKw7AW4kFrOo-17" style="edgeStyle=orthogonalEdgeStyle;rounded=0;orthogonalLoop=1;jettySize=auto;html=1;" edge="1" parent="1" source="OyOArgG9CKw7AW4kFrOo-7" target="OyOArgG9CKw7AW4kFrOo-8">
          <mxGeometry relative="1" as="geometry" />
        </mxCell>
        <mxCell id="OyOArgG9CKw7AW4kFrOo-34" style="rounded=0;orthogonalLoop=1;jettySize=auto;html=1;entryX=0;entryY=0.5;entryDx=0;entryDy=0;dashed=1;exitX=1;exitY=0.5;exitDx=0;exitDy=0;endArrow=none;endFill=0;" edge="1" parent="1" source="OyOArgG9CKw7AW4kFrOo-7" target="OyOArgG9CKw7AW4kFrOo-22">
          <mxGeometry relative="1" as="geometry" />
        </mxCell>
        <mxCell id="OyOArgG9CKw7AW4kFrOo-7" value="&lt;font style=&quot;font-size: 15px;&quot;&gt;Conv + ReLU&lt;br&gt;32&lt;/font&gt;&lt;span style=&quot;font-size: 15px; background-color: transparent; color: light-dark(rgb(0, 0, 0), rgb(255, 255, 255));&quot;&gt;&amp;nbsp;x 3&lt;/span&gt;&lt;div&gt;&lt;div&gt;&lt;font style=&quot;font-size: 15px;&quot;&gt;Stride = 1&lt;/font&gt;&lt;/div&gt;&lt;/div&gt;" style="rounded=0;whiteSpace=wrap;html=1;fillColor=#e1d5e7;strokeColor=#9673a6;" vertex="1" parent="1">
          <mxGeometry x="80" y="260" width="110" height="60" as="geometry" />
        </mxCell>
        <mxCell id="OyOArgG9CKw7AW4kFrOo-18" style="edgeStyle=orthogonalEdgeStyle;rounded=0;orthogonalLoop=1;jettySize=auto;html=1;entryX=0.5;entryY=0;entryDx=0;entryDy=0;" edge="1" parent="1" source="OyOArgG9CKw7AW4kFrOo-8" target="OyOArgG9CKw7AW4kFrOo-9">
          <mxGeometry relative="1" as="geometry" />
        </mxCell>
        <mxCell id="OyOArgG9CKw7AW4kFrOo-35" style="rounded=0;orthogonalLoop=1;jettySize=auto;html=1;dashed=1;endArrow=none;endFill=0;" edge="1" parent="1" source="OyOArgG9CKw7AW4kFrOo-8" target="OyOArgG9CKw7AW4kFrOo-22">
          <mxGeometry relative="1" as="geometry" />
        </mxCell>
        <mxCell id="OyOArgG9CKw7AW4kFrOo-8" value="&lt;font style=&quot;font-size: 15px;&quot;&gt;Conv + ReLU&lt;br&gt;64 x 3&lt;/font&gt;&lt;div&gt;&lt;font style=&quot;font-size: 15px;&quot;&gt;Stride = 1&lt;/font&gt;&lt;/div&gt;" style="rounded=0;whiteSpace=wrap;html=1;fillColor=#e1d5e7;strokeColor=#9673a6;" vertex="1" parent="1">
          <mxGeometry x="80" y="340" width="110" height="60" as="geometry" />
        </mxCell>
        <mxCell id="OyOArgG9CKw7AW4kFrOo-19" style="edgeStyle=orthogonalEdgeStyle;rounded=0;orthogonalLoop=1;jettySize=auto;html=1;" edge="1" parent="1" source="OyOArgG9CKw7AW4kFrOo-9" target="OyOArgG9CKw7AW4kFrOo-10">
          <mxGeometry relative="1" as="geometry" />
        </mxCell>
        <mxCell id="OyOArgG9CKw7AW4kFrOo-36" style="rounded=0;orthogonalLoop=1;jettySize=auto;html=1;dashed=1;endArrow=none;endFill=0;exitX=1;exitY=0.5;exitDx=0;exitDy=0;entryX=0;entryY=0.5;entryDx=0;entryDy=0;" edge="1" parent="1" source="OyOArgG9CKw7AW4kFrOo-9" target="OyOArgG9CKw7AW4kFrOo-22">
          <mxGeometry relative="1" as="geometry" />
        </mxCell>
        <mxCell id="OyOArgG9CKw7AW4kFrOo-9" value="&lt;font style=&quot;font-size: 15px;&quot;&gt;Conv + ReLU&lt;br&gt;128 x 3&lt;/font&gt;&lt;div&gt;&lt;font style=&quot;font-size: 15px;&quot;&gt;Stride = 1&lt;/font&gt;&lt;/div&gt;" style="rounded=0;whiteSpace=wrap;html=1;fillColor=#e1d5e7;strokeColor=#9673a6;" vertex="1" parent="1">
          <mxGeometry x="80" y="420" width="110" height="60" as="geometry" />
        </mxCell>
        <mxCell id="OyOArgG9CKw7AW4kFrOo-20" style="edgeStyle=orthogonalEdgeStyle;rounded=0;orthogonalLoop=1;jettySize=auto;html=1;entryX=0.5;entryY=0;entryDx=0;entryDy=0;" edge="1" parent="1" source="OyOArgG9CKw7AW4kFrOo-10" target="OyOArgG9CKw7AW4kFrOo-11">
          <mxGeometry relative="1" as="geometry" />
        </mxCell>
        <mxCell id="OyOArgG9CKw7AW4kFrOo-38" style="rounded=0;orthogonalLoop=1;jettySize=auto;html=1;entryX=0;entryY=0.5;entryDx=0;entryDy=0;dashed=1;endArrow=none;endFill=0;exitX=1;exitY=0.5;exitDx=0;exitDy=0;" edge="1" parent="1" source="OyOArgG9CKw7AW4kFrOo-10" target="OyOArgG9CKw7AW4kFrOo-22">
          <mxGeometry relative="1" as="geometry" />
        </mxCell>
        <mxCell id="OyOArgG9CKw7AW4kFrOo-10" value="&lt;font style=&quot;font-size: 15px;&quot;&gt;Conv + ReLU&lt;br&gt;256 x 3&lt;/font&gt;&lt;div&gt;&lt;font style=&quot;font-size: 15px;&quot;&gt;Stride = 1&lt;/font&gt;&lt;/div&gt;" style="rounded=0;whiteSpace=wrap;html=1;fillColor=#e1d5e7;strokeColor=#9673a6;" vertex="1" parent="1">
          <mxGeometry x="80" y="500" width="110" height="60" as="geometry" />
        </mxCell>
        <mxCell id="OyOArgG9CKw7AW4kFrOo-33" style="rounded=0;orthogonalLoop=1;jettySize=auto;html=1;entryX=0;entryY=0.5;entryDx=0;entryDy=0;dashed=1;endArrow=none;endFill=0;exitX=1;exitY=0.5;exitDx=0;exitDy=0;" edge="1" parent="1" source="OyOArgG9CKw7AW4kFrOo-11" target="OyOArgG9CKw7AW4kFrOo-22">
          <mxGeometry relative="1" as="geometry" />
        </mxCell>
        <mxCell id="OyOArgG9CKw7AW4kFrOo-11" value="&lt;font style=&quot;font-size: 15px;&quot;&gt;Conv + ReLU&lt;br&gt;512&lt;/font&gt;&lt;span style=&quot;font-size: 15px; background-color: transparent; color: light-dark(rgb(0, 0, 0), rgb(255, 255, 255));&quot;&gt;&amp;nbsp;x 3&lt;/span&gt;&lt;div&gt;&lt;div&gt;&lt;font style=&quot;font-size: 15px;&quot;&gt;Stride = 1&lt;/font&gt;&lt;/div&gt;&lt;/div&gt;" style="rounded=0;whiteSpace=wrap;html=1;fillColor=#e1d5e7;strokeColor=#9673a6;" vertex="1" parent="1">
          <mxGeometry x="80" y="580" width="110" height="60" as="geometry" />
        </mxCell>
        <mxCell id="OyOArgG9CKw7AW4kFrOo-14" style="edgeStyle=orthogonalEdgeStyle;rounded=0;orthogonalLoop=1;jettySize=auto;html=1;entryX=0.5;entryY=0;entryDx=0;entryDy=0;" edge="1" parent="1" source="OyOArgG9CKw7AW4kFrOo-13" target="OyOArgG9CKw7AW4kFrOo-1">
          <mxGeometry relative="1" as="geometry" />
        </mxCell>
        <mxCell id="OyOArgG9CKw7AW4kFrOo-13" value="&lt;font style=&quot;font-size: 15px;&quot;&gt;ECG Signal&lt;/font&gt;" style="text;html=1;align=center;verticalAlign=middle;whiteSpace=wrap;rounded=0;" vertex="1" parent="1">
          <mxGeometry x="70" y="40" width="130" height="30" as="geometry" />
        </mxCell>
        <mxCell id="OyOArgG9CKw7AW4kFrOo-54" style="rounded=0;orthogonalLoop=1;jettySize=auto;html=1;entryX=0;entryY=1;entryDx=0;entryDy=0;exitX=1;exitY=0.5;exitDx=0;exitDy=0;endArrow=none;endFill=0;" edge="1" parent="1" source="OyOArgG9CKw7AW4kFrOo-22" target="OyOArgG9CKw7AW4kFrOo-41">
          <mxGeometry relative="1" as="geometry" />
        </mxCell>
        <mxCell id="OyOArgG9CKw7AW4kFrOo-55" style="edgeStyle=orthogonalEdgeStyle;rounded=0;orthogonalLoop=1;jettySize=auto;html=1;entryX=0;entryY=0.5;entryDx=0;entryDy=0;endArrow=none;endFill=0;" edge="1" parent="1" source="OyOArgG9CKw7AW4kFrOo-22" target="OyOArgG9CKw7AW4kFrOo-24">
          <mxGeometry relative="1" as="geometry" />
        </mxCell>
        <mxCell id="OyOArgG9CKw7AW4kFrOo-56" style="rounded=0;orthogonalLoop=1;jettySize=auto;html=1;exitX=1;exitY=0.5;exitDx=0;exitDy=0;entryX=0;entryY=0;entryDx=0;entryDy=0;endArrow=none;endFill=0;" edge="1" parent="1" source="OyOArgG9CKw7AW4kFrOo-22" target="OyOArgG9CKw7AW4kFrOo-40">
          <mxGeometry relative="1" as="geometry" />
        </mxCell>
        <mxCell id="OyOArgG9CKw7AW4kFrOo-22" value="" style="rounded=0;whiteSpace=wrap;html=1;fillColor=#fff2cc;strokeColor=#d6b656;" vertex="1" parent="1">
          <mxGeometry x="320" y="250" width="40" height="240" as="geometry" />
        </mxCell>
        <mxCell id="OyOArgG9CKw7AW4kFrOo-80" style="edgeStyle=orthogonalEdgeStyle;rounded=0;orthogonalLoop=1;jettySize=auto;html=1;entryX=0;entryY=0.5;entryDx=0;entryDy=0;" edge="1" parent="1" source="OyOArgG9CKw7AW4kFrOo-24" target="OyOArgG9CKw7AW4kFrOo-47">
          <mxGeometry relative="1" as="geometry">
            <Array as="points">
              <mxPoint x="500" y="370" />
              <mxPoint x="500" y="335" />
            </Array>
          </mxGeometry>
        </mxCell>
        <mxCell id="OyOArgG9CKw7AW4kFrOo-81" style="edgeStyle=orthogonalEdgeStyle;rounded=0;orthogonalLoop=1;jettySize=auto;html=1;entryX=0;entryY=0.5;entryDx=0;entryDy=0;" edge="1" parent="1" source="OyOArgG9CKw7AW4kFrOo-24" target="OyOArgG9CKw7AW4kFrOo-46">
          <mxGeometry relative="1" as="geometry">
            <Array as="points">
              <mxPoint x="500" y="370" />
              <mxPoint x="500" y="408" />
            </Array>
          </mxGeometry>
        </mxCell>
        <mxCell id="OyOArgG9CKw7AW4kFrOo-82" style="edgeStyle=orthogonalEdgeStyle;rounded=0;orthogonalLoop=1;jettySize=auto;html=1;" edge="1" parent="1" source="OyOArgG9CKw7AW4kFrOo-24">
          <mxGeometry relative="1" as="geometry">
            <mxPoint x="490" y="370" as="targetPoint" />
          </mxGeometry>
        </mxCell>
        <mxCell id="OyOArgG9CKw7AW4kFrOo-24" value="" style="ellipse;whiteSpace=wrap;html=1;aspect=fixed;fillColor=#d5e8d4;strokeColor=#82b366;" vertex="1" parent="1">
          <mxGeometry x="420" y="347.5" width="45" height="45" as="geometry" />
        </mxCell>
        <mxCell id="OyOArgG9CKw7AW4kFrOo-84" style="edgeStyle=orthogonalEdgeStyle;rounded=0;orthogonalLoop=1;jettySize=auto;html=1;entryX=0;entryY=0.5;entryDx=0;entryDy=0;" edge="1" parent="1" source="OyOArgG9CKw7AW4kFrOo-40" target="OyOArgG9CKw7AW4kFrOo-45">
          <mxGeometry relative="1" as="geometry">
            <Array as="points">
              <mxPoint x="500" y="503" />
              <mxPoint x="500" y="465" />
            </Array>
          </mxGeometry>
        </mxCell>
        <mxCell id="OyOArgG9CKw7AW4kFrOo-85" style="edgeStyle=orthogonalEdgeStyle;rounded=0;orthogonalLoop=1;jettySize=auto;html=1;entryX=0;entryY=0.5;entryDx=0;entryDy=0;" edge="1" parent="1" source="OyOArgG9CKw7AW4kFrOo-40" target="OyOArgG9CKw7AW4kFrOo-42">
          <mxGeometry relative="1" as="geometry">
            <Array as="points">
              <mxPoint x="500" y="503" />
              <mxPoint x="500" y="535" />
            </Array>
          </mxGeometry>
        </mxCell>
        <mxCell id="OyOArgG9CKw7AW4kFrOo-86" style="edgeStyle=orthogonalEdgeStyle;rounded=0;orthogonalLoop=1;jettySize=auto;html=1;" edge="1" parent="1" source="OyOArgG9CKw7AW4kFrOo-40">
          <mxGeometry relative="1" as="geometry">
            <mxPoint x="490" y="502.5" as="targetPoint" />
          </mxGeometry>
        </mxCell>
        <mxCell id="OyOArgG9CKw7AW4kFrOo-40" value="" style="ellipse;whiteSpace=wrap;html=1;aspect=fixed;fillColor=#d5e8d4;strokeColor=#82b366;" vertex="1" parent="1">
          <mxGeometry x="420" y="480" width="45" height="45" as="geometry" />
        </mxCell>
        <mxCell id="OyOArgG9CKw7AW4kFrOo-76" style="edgeStyle=orthogonalEdgeStyle;rounded=0;orthogonalLoop=1;jettySize=auto;html=1;entryX=0;entryY=0.5;entryDx=0;entryDy=0;" edge="1" parent="1" source="OyOArgG9CKw7AW4kFrOo-41" target="OyOArgG9CKw7AW4kFrOo-49">
          <mxGeometry relative="1" as="geometry">
            <Array as="points">
              <mxPoint x="500" y="238" />
              <mxPoint x="500" y="185" />
            </Array>
          </mxGeometry>
        </mxCell>
        <mxCell id="OyOArgG9CKw7AW4kFrOo-77" style="edgeStyle=orthogonalEdgeStyle;rounded=0;orthogonalLoop=1;jettySize=auto;html=1;" edge="1" parent="1" source="OyOArgG9CKw7AW4kFrOo-41" target="OyOArgG9CKw7AW4kFrOo-48">
          <mxGeometry relative="1" as="geometry">
            <Array as="points">
              <mxPoint x="500" y="238" />
              <mxPoint x="500" y="265" />
            </Array>
          </mxGeometry>
        </mxCell>
        <mxCell id="OyOArgG9CKw7AW4kFrOo-78" style="edgeStyle=orthogonalEdgeStyle;rounded=0;orthogonalLoop=1;jettySize=auto;html=1;" edge="1" parent="1" source="OyOArgG9CKw7AW4kFrOo-41">
          <mxGeometry relative="1" as="geometry">
            <mxPoint x="490" y="237.5" as="targetPoint" />
          </mxGeometry>
        </mxCell>
        <mxCell id="OyOArgG9CKw7AW4kFrOo-41" value="" style="ellipse;whiteSpace=wrap;html=1;aspect=fixed;fillColor=#d5e8d4;strokeColor=#82b366;" vertex="1" parent="1">
          <mxGeometry x="420" y="215" width="45" height="45" as="geometry" />
        </mxCell>
        <mxCell id="OyOArgG9CKw7AW4kFrOo-65" style="edgeStyle=orthogonalEdgeStyle;rounded=0;orthogonalLoop=1;jettySize=auto;html=1;" edge="1" parent="1" source="OyOArgG9CKw7AW4kFrOo-42" target="OyOArgG9CKw7AW4kFrOo-60">
          <mxGeometry relative="1" as="geometry" />
        </mxCell>
        <mxCell id="OyOArgG9CKw7AW4kFrOo-42" value="" style="rounded=0;whiteSpace=wrap;html=1;fillColor=#FFFF00;" vertex="1" parent="1">
          <mxGeometry x="520" y="520" width="40" height="30" as="geometry" />
        </mxCell>
        <mxCell id="OyOArgG9CKw7AW4kFrOo-67" style="edgeStyle=orthogonalEdgeStyle;rounded=0;orthogonalLoop=1;jettySize=auto;html=1;" edge="1" parent="1" source="OyOArgG9CKw7AW4kFrOo-45" target="OyOArgG9CKw7AW4kFrOo-47">
          <mxGeometry relative="1" as="geometry" />
        </mxCell>
        <mxCell id="OyOArgG9CKw7AW4kFrOo-87" style="edgeStyle=orthogonalEdgeStyle;rounded=0;orthogonalLoop=1;jettySize=auto;html=1;" edge="1" parent="1" source="OyOArgG9CKw7AW4kFrOo-45" target="OyOArgG9CKw7AW4kFrOo-52">
          <mxGeometry relative="1" as="geometry">
            <Array as="points">
              <mxPoint x="650" y="465" />
              <mxPoint x="650" y="502" />
            </Array>
          </mxGeometry>
        </mxCell>
        <mxCell id="OyOArgG9CKw7AW4kFrOo-45" value="" style="rounded=0;whiteSpace=wrap;html=1;fillColor=#FFFF00;" vertex="1" parent="1">
          <mxGeometry x="580" y="450" width="40" height="30" as="geometry" />
        </mxCell>
        <mxCell id="OyOArgG9CKw7AW4kFrOo-64" style="edgeStyle=orthogonalEdgeStyle;rounded=0;orthogonalLoop=1;jettySize=auto;html=1;entryX=0.5;entryY=0;entryDx=0;entryDy=0;" edge="1" parent="1" source="OyOArgG9CKw7AW4kFrOo-46" target="OyOArgG9CKw7AW4kFrOo-42">
          <mxGeometry relative="1" as="geometry" />
        </mxCell>
        <mxCell id="OyOArgG9CKw7AW4kFrOo-46" value="" style="rounded=0;whiteSpace=wrap;html=1;fillColor=#FFFF00;" vertex="1" parent="1">
          <mxGeometry x="520" y="392.5" width="40" height="30" as="geometry" />
        </mxCell>
        <mxCell id="OyOArgG9CKw7AW4kFrOo-68" style="edgeStyle=orthogonalEdgeStyle;rounded=0;orthogonalLoop=1;jettySize=auto;html=1;entryX=0.5;entryY=1;entryDx=0;entryDy=0;" edge="1" parent="1" source="OyOArgG9CKw7AW4kFrOo-47" target="OyOArgG9CKw7AW4kFrOo-49">
          <mxGeometry relative="1" as="geometry" />
        </mxCell>
        <mxCell id="OyOArgG9CKw7AW4kFrOo-89" style="edgeStyle=orthogonalEdgeStyle;rounded=0;orthogonalLoop=1;jettySize=auto;html=1;" edge="1" parent="1" source="OyOArgG9CKw7AW4kFrOo-47" target="OyOArgG9CKw7AW4kFrOo-51">
          <mxGeometry relative="1" as="geometry">
            <Array as="points">
              <mxPoint x="650" y="335" />
              <mxPoint x="650" y="370" />
            </Array>
          </mxGeometry>
        </mxCell>
        <mxCell id="OyOArgG9CKw7AW4kFrOo-47" value="" style="rounded=0;whiteSpace=wrap;html=1;fillColor=#FFFF00;" vertex="1" parent="1">
          <mxGeometry x="580" y="320" width="40" height="30" as="geometry" />
        </mxCell>
        <mxCell id="OyOArgG9CKw7AW4kFrOo-63" style="edgeStyle=orthogonalEdgeStyle;rounded=0;orthogonalLoop=1;jettySize=auto;html=1;" edge="1" parent="1" source="OyOArgG9CKw7AW4kFrOo-48" target="OyOArgG9CKw7AW4kFrOo-46">
          <mxGeometry relative="1" as="geometry" />
        </mxCell>
        <mxCell id="OyOArgG9CKw7AW4kFrOo-48" value="" style="rounded=0;whiteSpace=wrap;html=1;fillColor=#FFFF00;" vertex="1" parent="1">
          <mxGeometry x="520" y="250" width="40" height="30" as="geometry" />
        </mxCell>
        <mxCell id="OyOArgG9CKw7AW4kFrOo-69" style="edgeStyle=orthogonalEdgeStyle;rounded=0;orthogonalLoop=1;jettySize=auto;html=1;" edge="1" parent="1" source="OyOArgG9CKw7AW4kFrOo-49" target="OyOArgG9CKw7AW4kFrOo-59">
          <mxGeometry relative="1" as="geometry" />
        </mxCell>
        <mxCell id="OyOArgG9CKw7AW4kFrOo-73" style="edgeStyle=orthogonalEdgeStyle;rounded=0;orthogonalLoop=1;jettySize=auto;html=1;entryX=0;entryY=0.5;entryDx=0;entryDy=0;" edge="1" parent="1" source="OyOArgG9CKw7AW4kFrOo-49" target="OyOArgG9CKw7AW4kFrOo-53">
          <mxGeometry relative="1" as="geometry">
            <Array as="points">
              <mxPoint x="650" y="185" />
              <mxPoint x="650" y="238" />
            </Array>
          </mxGeometry>
        </mxCell>
        <mxCell id="OyOArgG9CKw7AW4kFrOo-49" value="" style="rounded=0;whiteSpace=wrap;html=1;fillColor=#FFFF00;" vertex="1" parent="1">
          <mxGeometry x="580" y="170" width="40" height="30" as="geometry" />
        </mxCell>
        <mxCell id="OyOArgG9CKw7AW4kFrOo-100" style="edgeStyle=orthogonalEdgeStyle;rounded=0;orthogonalLoop=1;jettySize=auto;html=1;entryX=0;entryY=0.5;entryDx=0;entryDy=0;" edge="1" parent="1" source="OyOArgG9CKw7AW4kFrOo-51" target="OyOArgG9CKw7AW4kFrOo-98">
          <mxGeometry relative="1" as="geometry" />
        </mxCell>
        <mxCell id="OyOArgG9CKw7AW4kFrOo-51" value="" style="ellipse;whiteSpace=wrap;html=1;aspect=fixed;fillColor=#CCFF99;" vertex="1" parent="1">
          <mxGeometry x="690" y="347.5" width="45" height="45" as="geometry" />
        </mxCell>
        <mxCell id="OyOArgG9CKw7AW4kFrOo-101" style="edgeStyle=orthogonalEdgeStyle;rounded=0;orthogonalLoop=1;jettySize=auto;html=1;entryX=0;entryY=0.5;entryDx=0;entryDy=0;" edge="1" parent="1" source="OyOArgG9CKw7AW4kFrOo-52" target="OyOArgG9CKw7AW4kFrOo-98">
          <mxGeometry relative="1" as="geometry" />
        </mxCell>
        <mxCell id="OyOArgG9CKw7AW4kFrOo-52" value="" style="ellipse;whiteSpace=wrap;html=1;aspect=fixed;fillColor=#CCFF99;" vertex="1" parent="1">
          <mxGeometry x="690" y="480" width="45" height="45" as="geometry" />
        </mxCell>
        <mxCell id="OyOArgG9CKw7AW4kFrOo-99" style="edgeStyle=orthogonalEdgeStyle;rounded=0;orthogonalLoop=1;jettySize=auto;html=1;entryX=0;entryY=0.5;entryDx=0;entryDy=0;" edge="1" parent="1" source="OyOArgG9CKw7AW4kFrOo-53" target="OyOArgG9CKw7AW4kFrOo-98">
          <mxGeometry relative="1" as="geometry" />
        </mxCell>
        <mxCell id="OyOArgG9CKw7AW4kFrOo-53" value="" style="ellipse;whiteSpace=wrap;html=1;aspect=fixed;fillColor=#CCFF99;" vertex="1" parent="1">
          <mxGeometry x="690" y="215" width="45" height="45" as="geometry" />
        </mxCell>
        <mxCell id="OyOArgG9CKw7AW4kFrOo-62" style="edgeStyle=orthogonalEdgeStyle;rounded=0;orthogonalLoop=1;jettySize=auto;html=1;entryX=0.5;entryY=0;entryDx=0;entryDy=0;" edge="1" parent="1" source="OyOArgG9CKw7AW4kFrOo-57" target="OyOArgG9CKw7AW4kFrOo-48">
          <mxGeometry relative="1" as="geometry" />
        </mxCell>
        <mxCell id="OyOArgG9CKw7AW4kFrOo-57" value="" style="ellipse;whiteSpace=wrap;html=1;aspect=fixed;fillColor=#f8cecc;strokeColor=#b85450;" vertex="1" parent="1">
          <mxGeometry x="525" y="140" width="30" height="30" as="geometry" />
        </mxCell>
        <mxCell id="OyOArgG9CKw7AW4kFrOo-59" value="" style="ellipse;whiteSpace=wrap;html=1;aspect=fixed;fillColor=#FF9999;" vertex="1" parent="1">
          <mxGeometry x="585" y="100" width="30" height="30" as="geometry" />
        </mxCell>
        <mxCell id="OyOArgG9CKw7AW4kFrOo-60" value="" style="ellipse;whiteSpace=wrap;html=1;aspect=fixed;fillColor=#f8cecc;strokeColor=#b85450;" vertex="1" parent="1">
          <mxGeometry x="525" y="580" width="30" height="30" as="geometry" />
        </mxCell>
        <mxCell id="OyOArgG9CKw7AW4kFrOo-66" style="edgeStyle=orthogonalEdgeStyle;rounded=0;orthogonalLoop=1;jettySize=auto;html=1;entryX=0.5;entryY=1;entryDx=0;entryDy=0;" edge="1" parent="1" source="OyOArgG9CKw7AW4kFrOo-61" target="OyOArgG9CKw7AW4kFrOo-45">
          <mxGeometry relative="1" as="geometry" />
        </mxCell>
        <mxCell id="OyOArgG9CKw7AW4kFrOo-61" value="" style="ellipse;whiteSpace=wrap;html=1;aspect=fixed;fillColor=#FF9999;" vertex="1" parent="1">
          <mxGeometry x="585" y="550" width="30" height="30" as="geometry" />
        </mxCell>
        <mxCell id="OyOArgG9CKw7AW4kFrOo-92" value="" style="endArrow=none;html=1;rounded=0;" edge="1" parent="1">
          <mxGeometry width="50" height="50" relative="1" as="geometry">
            <mxPoint x="650" y="500" as="sourcePoint" />
            <mxPoint x="600" y="530" as="targetPoint" />
            <Array as="points">
              <mxPoint x="650" y="530" />
              <mxPoint x="630" y="530" />
            </Array>
          </mxGeometry>
        </mxCell>
        <mxCell id="OyOArgG9CKw7AW4kFrOo-93" value="" style="endArrow=none;html=1;rounded=0;" edge="1" parent="1">
          <mxGeometry width="50" height="50" relative="1" as="geometry">
            <mxPoint x="650" y="360" as="sourcePoint" />
            <mxPoint x="600" y="390" as="targetPoint" />
            <Array as="points">
              <mxPoint x="650" y="390" />
            </Array>
          </mxGeometry>
        </mxCell>
        <mxCell id="OyOArgG9CKw7AW4kFrOo-94" value="" style="endArrow=none;html=1;rounded=0;" edge="1" parent="1">
          <mxGeometry width="50" height="50" relative="1" as="geometry">
            <mxPoint x="650" y="230" as="sourcePoint" />
            <mxPoint x="600" y="260" as="targetPoint" />
            <Array as="points">
              <mxPoint x="650" y="260" />
            </Array>
          </mxGeometry>
        </mxCell>
        <mxCell id="OyOArgG9CKw7AW4kFrOo-98" value="&lt;font style=&quot;font-size: 17px;&quot;&gt;Softmax&lt;/font&gt;" style="rounded=0;whiteSpace=wrap;html=1;fillColor=#66FFFF;" vertex="1" parent="1">
          <mxGeometry x="790" y="355" width="120" height="30" as="geometry" />
        </mxCell>
        <mxCell id="OyOArgG9CKw7AW4kFrOo-102" value="&lt;font style=&quot;font-size: 15px;&quot;&gt;Feature Maps&lt;/font&gt;" style="text;html=1;align=center;verticalAlign=middle;whiteSpace=wrap;rounded=0;" vertex="1" parent="1">
          <mxGeometry x="285" y="220" width="110" height="30" as="geometry" />
        </mxCell>
        <mxCell id="OyOArgG9CKw7AW4kFrOo-103" value="&lt;span style=&quot;font-size: 15px;&quot;&gt;Forward&lt;/span&gt;" style="text;html=1;align=center;verticalAlign=middle;whiteSpace=wrap;rounded=0;" vertex="1" parent="1">
          <mxGeometry x="450" y="115" width="110" height="30" as="geometry" />
        </mxCell>
        <mxCell id="OyOArgG9CKw7AW4kFrOo-104" value="&lt;span style=&quot;font-size: 15px;&quot;&gt;Backward&lt;/span&gt;" style="text;html=1;align=center;verticalAlign=middle;whiteSpace=wrap;rounded=0;" vertex="1" parent="1">
          <mxGeometry x="580" y="70" width="110" height="30" as="geometry" />
        </mxCell>
        <mxCell id="OyOArgG9CKw7AW4kFrOo-106" value="&lt;b style=&quot;&quot;&gt;&lt;font style=&quot;font-size: 20px;&quot;&gt;BiLSTM&lt;/font&gt;&lt;/b&gt;" style="text;html=1;align=center;verticalAlign=middle;whiteSpace=wrap;rounded=0;" vertex="1" parent="1">
          <mxGeometry x="520" y="630" width="110" height="30" as="geometry" />
        </mxCell>
      </root>
    </mxGraphModel>
  </diagram>
</mxfile>
